<?xml version="1.0" standalone="no"?>
<svg version="1.0" xmlns="http://www.w3.org/2000/svg"
 width="14" height="14" viewBox="0 0 1408.000000 1451.000000"
 fill="currentColor"
 preserveAspectRatio="xMidYMid meet">

<g transform="translate(0.000000,1451.000000) scale(0.100000,-0.100000)"
fill="#000000" stroke="none">
<path d="M2125 14264 c-305 -74 -534 -386 -512 -699 7 -103 46 -226 96 -301
48 -74 1373 -1398 1483 -1483 160 -122 341 -208 545 -258 l108 -27 1655 -7
c910 -3 1669 -9 1685 -12 17 -4 82 -11 145 -18 879 -86 1664 -441 2226 -1005
566 -568 905 -1324 1011 -2256 25 -217 25 -826 0 -1048 -117 -1042 -508 -1930
-1117 -2540 -466 -468 -1038 -753 -1733 -865 -311 -50 -320 -50 -1672 -50
-1162 0 -1278 1 -1361 17 -117 22 -221 61 -267 99 -112 92 -148 372 -111 859
16 210 19 436 24 2155 5 1782 7 1924 23 1978 29 100 26 97 160 127 101 22 351
32 607 25 140 -5 783 -11 1427 -14 l1173 -6 -981 -1145 c-633 -738 -1042
-1207 -1153 -1320 -473 -485 -660 -734 -738 -980 -19 -64 -23 -96 -23 -215 0
-120 3 -150 23 -209 77 -229 227 -382 457 -463 l80 -28 1670 -3 c1868 -3 1742
-8 1894 69 143 71 269 212 326 364 137 364 -81 778 -461 875 -74 19 -114 20
-1006 20 -510 0 -928 3 -928 6 0 9 1916 2241 1995 2324 124 130 220 298 265
465 27 97 38 324 21 431 -51 328 -249 646 -538 863 -174 130 -357 215 -571
262 -96 22 -111 22 -1692 30 -1756 8 -1844 6 -2115 -47 -630 -123 -1050 -525
-1190 -1137 -50 -220 -48 -116 -55 -2182 -5 -1721 -8 -1955 -24 -2165 -21
-282 -17 -680 9 -850 134 -875 656 -1378 1575 -1517 103 -15 244 -17 1380 -21
874 -2 1321 0 1445 8 1073 68 1971 410 2722 1036 1032 862 1696 2273 1803
3834 15 215 12 726 -5 932 -49 598 -166 1113 -372 1638 -64 162 -256 551 -351
707 -727 1202 -1910 1979 -3382 2222 -472 78 -557 81 -2285 81 l-1499 0 -681
679 c-654 652 -683 680 -755 715 -41 19 -102 43 -135 51 -74 19 -239 18 -320
-1z"/>
<path d="M5419 1900 c-180 -29 -348 -126 -460 -268 -109 -136 -161 -284 -161
-457 0 -285 159 -537 416 -660 107 -51 185 -68 311 -69 133 0 205 17 331 79
339 166 494 580 347 930 -86 205 -283 375 -498 430 -76 19 -213 27 -286 15z"/>
<path d="M7575 1901 c-249 -40 -458 -195 -561 -418 -48 -101 -67 -190 -67
-308 0 -118 19 -207 67 -308 90 -193 263 -340 471 -398 111 -31 269 -31 380 0
255 71 455 275 522 531 23 87 23 263 0 350 -67 254 -268 460 -516 529 -84 23
-222 34 -296 22z"/>
</g>
</svg>
